<?xml version="1.0" encoding="utf-8" ?>
<svg baseProfile="full" height="400" version="1.1" width="1000" xmlns="http://www.w3.org/2000/svg" xmlns:ev="http://www.w3.org/2001/xml-events" xmlns:xlink="http://www.w3.org/1999/xlink"><defs /><rect fill="#0d1117" height="400" width="1000" x="0" y="0" /><ellipse cx="500.0" cy="200.0" fill="#333333" rx="400.0" ry="100.0" /><ellipse cx="500.0" cy="200.0" fill="#264026" rx="360.0" ry="60.0" /><g opacity="0.15" transform="rotate(420.3296703296704,830.1774281155026,160.39929715331354)"><rect fill="#ff3300" height="4.800000000000001" rx="3" width="9.600000000000001" x="825.3774281155027" y="157.99929715331353" /><rect fill="#111" height="1.6000000000000003" width="1.6000000000000003" x="826.1774281155026" y="157.19929715331352" /><rect fill="#111" height="1.6000000000000003" width="1.6000000000000003" x="832.5774281155026" y="157.19929715331352" /><rect fill="#111" height="1.6000000000000003" width="1.6000000000000003" x="826.1774281155026" y="161.99929715331353" /><rect fill="#111" height="1.6000000000000003" width="1.6000000000000003" x="832.5774281155026" y="161.99929715331353" /><polygon fill="#66ccff" points="830.1774281155026,157.99929715331353 832.5774281155026,159.19929715331355 832.5774281155026,161.59929715331353 830.1774281155026,162.79929715331355" /></g><g opacity="0.16166666666666665" transform="rotate(421.3186813186813,833.3750237957879,161.60500176321705)"><rect fill="#ff3300" height="8.0" rx="3" width="16.0" x="825.3750237957879" y="157.60500176321705" /><rect fill="#111" height="2.6666666666666665" width="2.6666666666666665" x="826.7083571291213" y="156.2716684298837" /><rect fill="#111" height="2.6666666666666665" width="2.6666666666666665" x="837.3750237957879" y="156.2716684298837" /><rect fill="#111" height="2.6666666666666665" width="2.6666666666666665" x="826.7083571291213" y="164.2716684298837" /><rect fill="#111" height="2.6666666666666665" width="2.6666666666666665" x="837.3750237957879" y="164.2716684298837" /><polygon fill="#66ccff" points="833.3750237957879,157.60500176321705 837.3750237957879,159.60500176321705 837.3750237957879,163.60500176321705 833.3750237957879,165.60500176321705" /></g><g opacity="0.17333333333333334" transform="rotate(422.3076923076923,836.4732897482198,162.82214623649853)"><rect fill="#ff3300" height="4.800000000000001" rx="3" width="9.600000000000001" x="831.6732897482199" y="160.42214623649852" /><rect fill="#111" height="1.6000000000000003" width="1.6000000000000003" x="832.4732897482198" y="159.6221462364985" /><rect fill="#111" height="1.6000000000000003" width="1.6000000000000003" x="838.8732897482198" y="159.6221462364985" /><rect fill="#111" height="1.6000000000000003" width="1.6000000000000003" x="832.4732897482198" y="164.42214623649852" /><rect fill="#111" height="1.6000000000000003" width="1.6000000000000003" x="838.8732897482198" y="164.42214623649852" /><polygon fill="#66ccff" points="836.4732897482198,160.42214623649852 838.8732897482198,161.62214623649854 838.8732897482198,164.02214623649851 836.4732897482198,165.22214623649853" /></g><g opacity="0.185" transform="rotate(423.2967032967033,839.4713028385138,164.05036792262703)"><rect fill="#ff3300" height="4.800000000000001" rx="3" width="9.600000000000001" x="834.6713028385138" y="161.65036792262703" /><rect fill="#111" height="1.6000000000000003" width="1.6000000000000003" x="835.4713028385138" y="160.85036792262702" /><rect fill="#111" height="1.6000000000000003" width="1.6000000000000003" x="841.8713028385138" y="160.85036792262702" /><rect fill="#111" height="1.6000000000000003" width="1.6000000000000003" x="835.4713028385138" y="165.65036792262703" /><rect fill="#111" height="1.6000000000000003" width="1.6000000000000003" x="841.8713028385138" y="165.65036792262703" /><polygon fill="#66ccff" points="839.4713028385138,161.65036792262703 841.8713028385138,162.85036792262704 841.8713028385138,165.25036792262702 839.4713028385138,166.45036792262704" /></g><g opacity="0.19666666666666666" transform="rotate(424.2857142857143,842.3681698029193,165.28930087059533)"><rect fill="#ff3300" height="4.800000000000001" rx="3" width="9.600000000000001" x="837.5681698029193" y="162.88930087059532" /><rect fill="#111" height="1.6000000000000003" width="1.6000000000000003" x="838.3681698029193" y="162.0893008705953" /><rect fill="#111" height="1.6000000000000003" width="1.6000000000000003" x="844.7681698029193" y="162.0893008705953" /><rect fill="#111" height="1.6000000000000003" width="1.6000000000000003" x="838.3681698029193" y="166.88930087059532" /><rect fill="#111" height="1.6000000000000003" width="1.6000000000000003" x="844.7681698029193" y="166.88930087059532" /><polygon fill="#66ccff" points="842.3681698029193,162.88930087059532 844.7681698029193,164.08930087059534 844.7681698029193,166.48930087059532 842.3681698029193,167.68930087059533" /></g><g opacity="0.20833333333333331" transform="rotate(425.2747252747253,845.1630275143664,166.53857593795476)"><rect fill="#ff3300" height="4.800000000000001" rx="3" width="9.600000000000001" x="840.3630275143664" y="164.13857593795476" /><rect fill="#111" height="1.6000000000000003" width="1.6000000000000003" x="841.1630275143664" y="163.33857593795474" /><rect fill="#111" height="1.6000000000000003" width="1.6000000000000003" x="847.5630275143664" y="163.33857593795474" /><rect fill="#111" height="1.6000000000000003" width="1.6000000000000003" x="841.1630275143664" y="168.13857593795476" /><rect fill="#111" height="1.6000000000000003" width="1.6000000000000003" x="847.5630275143664" y="168.13857593795476" /><polygon fill="#66ccff" points="845.1630275143664,164.13857593795476 847.5630275143664,165.33857593795477 847.5630275143664,167.73857593795475 845.1630275143664,168.93857593795477" /></g><g opacity="0.21999999999999997" transform="rotate(426.2637362637363,847.8550432396393,167.7978209008026)"><rect fill="#ff3300" height="9.600000000000001" rx="3" width="19.200000000000003" x="838.2550432396392" y="162.9978209008026" /><rect fill="#111" height="3.2000000000000006" width="3.2000000000000006" x="839.8550432396393" y="161.3978209008026" /><rect fill="#111" height="3.2000000000000006" width="3.2000000000000006" x="852.6550432396393" y="161.3978209008026" /><rect fill="#111" height="3.2000000000000006" width="3.2000000000000006" x="839.8550432396393" y="170.99782090080262" /><rect fill="#111" height="3.2000000000000006" width="3.2000000000000006" x="852.6550432396393" y="170.99782090080262" /><polygon fill="#66ccff" points="847.8550432396393,162.9978209008026 852.6550432396392,165.3978209008026 852.6550432396392,170.1978209008026 847.8550432396393,172.59782090080262" /></g><g opacity="0.23166666666666666" transform="rotate(427.2527472527472,850.4434148874877,169.06666056468643)"><rect fill="#ff3300" height="4.800000000000001" rx="3" width="9.600000000000001" x="845.6434148874878" y="166.66666056468642" /><rect fill="#111" height="1.6000000000000003" width="1.6000000000000003" x="846.4434148874877" y="165.8666605646864" /><rect fill="#111" height="1.6000000000000003" width="1.6000000000000003" x="852.8434148874877" y="165.8666605646864" /><rect fill="#111" height="1.6000000000000003" width="1.6000000000000003" x="846.4434148874877" y="170.66666056468642" /><rect fill="#111" height="1.6000000000000003" width="1.6000000000000003" x="852.8434148874877" y="170.66666056468642" /><polygon fill="#66ccff" points="850.4434148874877,166.66666056468642 852.8434148874877,167.86666056468644 852.8434148874877,170.26666056468642 850.4434148874877,171.46666056468644" /></g><g opacity="0.24333333333333332" transform="rotate(428.24175824175825,852.9273712476149,170.34471687639459)"><rect fill="#ff3300" height="4.800000000000001" rx="3" width="9.600000000000001" x="848.127371247615" y="167.94471687639458" /><rect fill="#111" height="1.6000000000000003" width="1.6000000000000003" x="848.9273712476149" y="167.14471687639457" /><rect fill="#111" height="1.6000000000000003" width="1.6000000000000003" x="855.3273712476149" y="167.14471687639457" /><rect fill="#111" height="1.6000000000000003" width="1.6000000000000003" x="848.9273712476149" y="171.94471687639458" /><rect fill="#111" height="1.6000000000000003" width="1.6000000000000003" x="855.3273712476149" y="171.94471687639458" /><polygon fill="#66ccff" points="852.9273712476149,167.94471687639458 855.3273712476149,169.1447168763946 855.3273712476149,171.54471687639457 852.9273712476149,172.7447168763946" /></g><g opacity="0.255" transform="rotate(429.2307692307692,855.3061722204577,171.63160903659718)"><rect fill="#ff3300" height="4.800000000000001" rx="3" width="9.600000000000001" x="850.5061722204578" y="169.23160903659718" /><rect fill="#111" height="1.6000000000000003" width="1.6000000000000003" x="851.3061722204577" y="168.43160903659717" /><rect fill="#111" height="1.6000000000000003" width="1.6000000000000003" x="857.7061722204577" y="168.43160903659717" /><rect fill="#111" height="1.6000000000000003" width="1.6000000000000003" x="851.3061722204577" y="173.23160903659718" /><rect fill="#111" height="1.6000000000000003" width="1.6000000000000003" x="857.7061722204577" y="173.23160903659718" /><polygon fill="#66ccff" points="855.3061722204577,169.23160903659718 857.7061722204577,170.4316090365972 857.7061722204577,172.83160903659717 855.3061722204577,174.0316090365972" /></g><g opacity="0.26666666666666666" transform="rotate(430.21978021978015,857.5791090377029,172.92695361330632)"><rect fill="#ff3300" height="4.800000000000001" rx="3" width="9.600000000000001" x="852.7791090377029" y="170.52695361330632" /><rect fill="#111" height="1.6000000000000003" width="1.6000000000000003" x="853.5791090377029" y="169.7269536133063" /><rect fill="#111" height="1.6000000000000003" width="1.6000000000000003" x="859.9791090377029" y="169.7269536133063" /><rect fill="#111" height="1.6000000000000003" width="1.6000000000000003" x="853.5791090377029" y="174.52695361330632" /><rect fill="#111" height="1.6000000000000003" width="1.6000000000000003" x="859.9791090377029" y="174.52695361330632" /><polygon fill="#66ccff" points="857.5791090377029,170.52695361330632 859.9791090377029,171.72695361330634 859.9791090377029,174.1269536133063 857.5791090377029,175.32695361330633" /></g><g opacity="0.2783333333333333" transform="rotate(431.20879120879124,859.7455044734663,174.23036465612074)"><rect fill="#ff3300" height="4.800000000000001" rx="3" width="9.600000000000001" x="854.9455044734664" y="171.83036465612074" /><rect fill="#111" height="1.6000000000000003" width="1.6000000000000003" x="855.7455044734663" y="171.03036465612072" /><rect fill="#111" height="1.6000000000000003" width="1.6000000000000003" x="862.1455044734663" y="171.03036465612072" /><rect fill="#111" height="1.6000000000000003" width="1.6000000000000003" x="855.7455044734663" y="175.83036465612074" /><rect fill="#111" height="1.6000000000000003" width="1.6000000000000003" x="862.1455044734663" y="175.83036465612074" /><polygon fill="#66ccff" points="859.7455044734663,171.83036465612074 862.1455044734663,173.03036465612075 862.1455044734663,175.43036465612073 859.7455044734663,176.63036465612075" /></g><g opacity="0.29" transform="rotate(432.19780219780216,861.8047130460714,175.54145381121975)"><rect fill="#ff3300" height="6.4" rx="3" width="12.8" x="855.4047130460714" y="172.34145381121976" /><rect fill="#111" height="2.1333333333333333" width="2.1333333333333333" x="856.4713797127381" y="171.2747871445531" /><rect fill="#111" height="2.1333333333333333" width="2.1333333333333333" x="865.0047130460713" y="171.2747871445531" /><rect fill="#111" height="2.1333333333333333" width="2.1333333333333333" x="856.4713797127381" y="177.67478714455308" /><rect fill="#111" height="2.1333333333333333" width="2.1333333333333333" x="865.0047130460713" y="177.67478714455308" /><polygon fill="#66ccff" points="861.8047130460714,172.34145381121976 865.0047130460714,173.94145381121976 865.0047130460714,177.14145381121975 861.8047130460714,178.74145381121974" /></g><g opacity="0.30166666666666664" transform="rotate(433.1868131868132,863.756121210374,176.85983043707455)"><rect fill="#ff3300" height="4.800000000000001" rx="3" width="9.600000000000001" x="858.956121210374" y="174.45983043707454" /><rect fill="#111" height="1.6000000000000003" width="1.6000000000000003" x="859.756121210374" y="173.65983043707453" /><rect fill="#111" height="1.6000000000000003" width="1.6000000000000003" x="866.156121210374" y="173.65983043707453" /><rect fill="#111" height="1.6000000000000003" width="1.6000000000000003" x="859.756121210374" y="178.45983043707454" /><rect fill="#111" height="1.6000000000000003" width="1.6000000000000003" x="866.156121210374" y="178.45983043707454" /><polygon fill="#66ccff" points="863.756121210374,174.45983043707454 866.156121210374,175.65983043707456 866.156121210374,178.05983043707454 863.756121210374,179.25983043707456" /></g><g opacity="0.31333333333333335" transform="rotate(434.1758241758242,865.5991475405681,178.18510172084046)"><rect fill="#ff3300" height="4.800000000000001" rx="3" width="9.600000000000001" x="860.7991475405681" y="175.78510172084046" /><rect fill="#111" height="1.6000000000000003" width="1.6000000000000003" x="861.5991475405681" y="174.98510172084045" /><rect fill="#111" height="1.6000000000000003" width="1.6000000000000003" x="867.9991475405681" y="174.98510172084045" /><rect fill="#111" height="1.6000000000000003" width="1.6000000000000003" x="861.5991475405681" y="179.78510172084046" /><rect fill="#111" height="1.6000000000000003" width="1.6000000000000003" x="867.9991475405681" y="179.78510172084046" /><polygon fill="#66ccff" points="865.5991475405681,175.78510172084046 867.9991475405681,176.98510172084048 867.9991475405681,179.38510172084045 865.5991475405681,180.58510172084047" /></g><g opacity="0.32499999999999996" transform="rotate(435.1648351648352,867.3332429034235,179.51687279539624)"><rect fill="#ff3300" height="4.800000000000001" rx="3" width="9.600000000000001" x="862.5332429034236" y="177.11687279539623" /><rect fill="#111" height="1.6000000000000003" width="1.6000000000000003" x="863.3332429034235" y="176.31687279539622" /><rect fill="#111" height="1.6000000000000003" width="1.6000000000000003" x="869.7332429034235" y="176.31687279539622" /><rect fill="#111" height="1.6000000000000003" width="1.6000000000000003" x="863.3332429034235" y="181.11687279539623" /><rect fill="#111" height="1.6000000000000003" width="1.6000000000000003" x="869.7332429034235" y="181.11687279539623" /><polygon fill="#66ccff" points="867.3332429034235,177.11687279539623 869.7332429034235,178.31687279539625 869.7332429034235,180.71687279539623 867.3332429034235,181.91687279539624" /></g><g opacity="0.33666666666666667" transform="rotate(436.15384615384613,868.9578906218997,180.85474685699532)"><rect fill="#ff3300" height="6.4" rx="3" width="12.8" x="862.5578906218997" y="177.65474685699533" /><rect fill="#111" height="2.1333333333333333" width="2.1333333333333333" x="863.6245572885664" y="176.58808019032867" /><rect fill="#111" height="2.1333333333333333" width="2.1333333333333333" x="872.1578906218996" y="176.58808019032867" /><rect fill="#111" height="2.1333333333333333" width="2.1333333333333333" x="863.6245572885664" y="182.98808019032865" /><rect fill="#111" height="2.1333333333333333" width="2.1333333333333333" x="872.1578906218996" y="182.98808019032865" /><polygon fill="#66ccff" points="868.9578906218997,177.65474685699533 872.1578906218997,179.25474685699533 872.1578906218997,182.4547468569953 868.9578906218997,184.0547468569953" /></g><g opacity="0.3483333333333333" transform="rotate(437.1428571428571,870.472606629093,182.19832528349482)"><rect fill="#ff3300" height="4.800000000000001" rx="3" width="9.600000000000001" x="865.672606629093" y="179.79832528349482" /><rect fill="#111" height="1.6000000000000003" width="1.6000000000000003" x="866.472606629093" y="178.9983252834948" /><rect fill="#111" height="1.6000000000000003" width="1.6000000000000003" x="872.872606629093" y="178.9983252834948" /><rect fill="#111" height="1.6000000000000003" width="1.6000000000000003" x="866.472606629093" y="183.79832528349482" /><rect fill="#111" height="1.6000000000000003" width="1.6000000000000003" x="872.872606629093" y="183.79832528349482" /><polygon fill="#66ccff" points="870.472606629093,179.79832528349482 872.872606629093,180.99832528349484 872.872606629093,183.3983252834948 870.472606629093,184.59832528349483" /></g><g opacity="0.36" transform="rotate(438.13186813186815,871.876939612463,183.54720775312504)"><rect fill="#ff3300" height="11.200000000000001" rx="3" width="22.400000000000002" x="860.676939612463" y="177.94720775312504" /><rect fill="#111" height="3.733333333333334" width="3.733333333333334" x="862.5436062791297" y="176.08054108645837" /><rect fill="#111" height="3.733333333333334" width="3.733333333333334" x="877.4769396124631" y="176.08054108645837" /><rect fill="#111" height="3.733333333333334" width="3.733333333333334" x="862.5436062791297" y="187.28054108645836" /><rect fill="#111" height="3.733333333333334" width="3.733333333333334" x="877.4769396124631" y="187.28054108645836" /><polygon fill="#66ccff" points="871.876939612463,177.94720775312504 877.4769396124631,180.74720775312502 877.4769396124631,186.34720775312505 871.876939612463,189.14720775312503" /></g><g opacity="0.37166666666666665" transform="rotate(439.12087912087907,873.1704711483035,184.90099236376662)"><rect fill="#ff3300" height="9.600000000000001" rx="3" width="19.200000000000003" x="863.5704711483035" y="180.1009923637666" /><rect fill="#111" height="3.2000000000000006" width="3.2000000000000006" x="865.1704711483035" y="178.5009923637666" /><rect fill="#111" height="3.2000000000000006" width="3.2000000000000006" x="877.9704711483035" y="178.5009923637666" /><rect fill="#111" height="3.2000000000000006" width="3.2000000000000006" x="865.1704711483035" y="188.10099236376664" /><rect fill="#111" height="3.2000000000000006" width="3.2000000000000006" x="877.9704711483035" y="188.10099236376664" /><polygon fill="#66ccff" points="873.1704711483035,180.1009923637666 877.9704711483034,182.5009923637666 877.9704711483034,187.30099236376662 873.1704711483035,189.70099236376663" /></g><g opacity="0.3833333333333333" transform="rotate(440.10989010989016,874.3528158264121,186.25927575269793)"><rect fill="#ff3300" height="4.800000000000001" rx="3" width="9.600000000000001" x="869.5528158264121" y="183.85927575269793" /><rect fill="#111" height="1.6000000000000003" width="1.6000000000000003" x="870.3528158264121" y="183.0592757526979" /><rect fill="#111" height="1.6000000000000003" width="1.6000000000000003" x="876.7528158264121" y="183.0592757526979" /><rect fill="#111" height="1.6000000000000003" width="1.6000000000000003" x="870.3528158264121" y="187.85927575269793" /><rect fill="#111" height="1.6000000000000003" width="1.6000000000000003" x="876.7528158264121" y="187.85927575269793" /><polygon fill="#66ccff" points="874.3528158264121,183.85927575269793 876.7528158264121,185.05927575269794 876.7528158264121,187.45927575269792 874.3528158264121,188.65927575269794" /></g><g opacity="0.39499999999999996" transform="rotate(441.0989010989011,875.4236213649236,187.62165321677747)"><rect fill="#ff3300" height="4.800000000000001" rx="3" width="9.600000000000001" x="870.6236213649237" y="185.22165321677747" /><rect fill="#111" height="1.6000000000000003" width="1.6000000000000003" x="871.4236213649236" y="184.42165321677746" /><rect fill="#111" height="1.6000000000000003" width="1.6000000000000003" x="877.8236213649236" y="184.42165321677746" /><rect fill="#111" height="1.6000000000000003" width="1.6000000000000003" x="871.4236213649236" y="189.22165321677747" /><rect fill="#111" height="1.6000000000000003" width="1.6000000000000003" x="877.8236213649236" y="189.22165321677747" /><polygon fill="#66ccff" points="875.4236213649236,185.22165321677747 877.8236213649236,186.4216532167775 877.8236213649236,188.82165321677746 875.4236213649236,190.02165321677748" /></g><g opacity="0.4066666666666666" transform="rotate(442.0879120879122,876.382568715274,188.98771883302658)"><rect fill="#ff3300" height="4.800000000000001" rx="3" width="9.600000000000001" x="871.5825687152741" y="186.58771883302657" /><rect fill="#111" height="1.6000000000000003" width="1.6000000000000003" x="872.382568715274" y="185.78771883302656" /><rect fill="#111" height="1.6000000000000003" width="1.6000000000000003" x="878.782568715274" y="185.78771883302656" /><rect fill="#111" height="1.6000000000000003" width="1.6000000000000003" x="872.382568715274" y="190.58771883302657" /><rect fill="#111" height="1.6000000000000003" width="1.6000000000000003" x="878.782568715274" y="190.58771883302657" /><polygon fill="#66ccff" points="876.382568715274,186.58771883302657 878.782568715274,187.7877188330266 878.782568715274,190.18771883302657 876.382568715274,191.38771883302658" /></g><g opacity="0.41833333333333333" transform="rotate(443.07692307692304,877.2293721572605,190.3570655795741)"><rect fill="#ff3300" height="4.800000000000001" rx="3" width="9.600000000000001" x="872.4293721572606" y="187.9570655795741" /><rect fill="#111" height="1.6000000000000003" width="1.6000000000000003" x="873.2293721572605" y="187.1570655795741" /><rect fill="#111" height="1.6000000000000003" width="1.6000000000000003" x="879.6293721572605" y="187.1570655795741" /><rect fill="#111" height="1.6000000000000003" width="1.6000000000000003" x="873.2293721572605" y="191.9570655795741" /><rect fill="#111" height="1.6000000000000003" width="1.6000000000000003" x="879.6293721572605" y="191.9570655795741" /><polygon fill="#66ccff" points="877.2293721572605,187.9570655795741 879.6293721572605,189.15706557957412 879.6293721572605,191.5570655795741 877.2293721572605,192.75706557957412" /></g><g opacity="0.42999999999999994" transform="rotate(444.06593406593413,877.9637793841732,191.7292854569304)"><rect fill="#ff3300" height="8.0" rx="3" width="16.0" x="869.9637793841732" y="187.7292854569304" /><rect fill="#111" height="2.6666666666666665" width="2.6666666666666665" x="871.2971127175066" y="186.39595212359706" /><rect fill="#111" height="2.6666666666666665" width="2.6666666666666665" x="881.9637793841732" y="186.39595212359706" /><rect fill="#111" height="2.6666666666666665" width="2.6666666666666665" x="871.2971127175066" y="194.39595212359706" /><rect fill="#111" height="2.6666666666666665" width="2.6666666666666665" x="881.9637793841732" y="194.39595212359706" /><polygon fill="#66ccff" points="877.9637793841732,187.7292854569304 881.9637793841732,189.7292854569304 881.9637793841732,193.7292854569304 877.9637793841732,195.7292854569304" /></g><g opacity="0.44166666666666665" transform="rotate(445.05494505494505,878.5855715779701,193.10396960955038)"><rect fill="#ff3300" height="4.800000000000001" rx="3" width="9.600000000000001" x="873.7855715779701" y="190.70396960955037" /><rect fill="#111" height="1.6000000000000003" width="1.6000000000000003" x="874.5855715779701" y="189.90396960955036" /><rect fill="#111" height="1.6000000000000003" width="1.6000000000000003" x="880.9855715779701" y="189.90396960955036" /><rect fill="#111" height="1.6000000000000003" width="1.6000000000000003" x="874.5855715779701" y="194.70396960955037" /><rect fill="#111" height="1.6000000000000003" width="1.6000000000000003" x="880.9855715779701" y="194.70396960955037" /><polygon fill="#66ccff" points="878.5855715779701,190.70396960955037 880.9855715779701,191.9039696095504 880.9855715779701,194.30396960955036 878.5855715779701,195.50396960955038" /></g><g opacity="0.45333333333333337" transform="rotate(446.04395604395603,879.0945634744741,194.48070844765397)"><rect fill="#ff3300" height="11.200000000000001" rx="3" width="22.400000000000002" x="867.894563474474" y="188.88070844765397" /><rect fill="#111" height="3.733333333333334" width="3.733333333333334" x="869.7612301411407" y="187.0140417809873" /><rect fill="#111" height="3.733333333333334" width="3.733333333333334" x="884.6945634744741" y="187.0140417809873" /><rect fill="#111" height="3.733333333333334" width="3.733333333333334" x="869.7612301411407" y="198.2140417809873" /><rect fill="#111" height="3.733333333333334" width="3.733333333333334" x="884.6945634744741" y="198.2140417809873" /><polygon fill="#66ccff" points="879.0945634744741,188.88070844765397 884.6945634744741,191.68070844765396 884.6945634744741,197.28070844765398 879.0945634744741,200.08070844765396" /></g><g opacity="0.46499999999999997" transform="rotate(447.03296703296706,879.4906034185733,195.85909176926322)"><rect fill="#ff3300" height="4.800000000000001" rx="3" width="9.600000000000001" x="874.6906034185733" y="193.4590917692632" /><rect fill="#111" height="1.6000000000000003" width="1.6000000000000003" x="875.4906034185733" y="192.6590917692632" /><rect fill="#111" height="1.6000000000000003" width="1.6000000000000003" x="881.8906034185733" y="192.6590917692632" /><rect fill="#111" height="1.6000000000000003" width="1.6000000000000003" x="875.4906034185733" y="197.4590917692632" /><rect fill="#111" height="1.6000000000000003" width="1.6000000000000003" x="881.8906034185733" y="197.4590917692632" /><polygon fill="#66ccff" points="879.4906034185733,193.4590917692632 881.8906034185733,194.65909176926323 881.8906034185733,197.0590917692632 879.4906034185733,198.25909176926322" /></g><g opacity="0.4766666666666667" transform="rotate(448.02197802197804,879.7735734094068,197.23870888242337)"><rect fill="#ff3300" height="4.800000000000001" rx="3" width="9.600000000000001" x="874.9735734094069" y="194.83870888242336" /><rect fill="#111" height="1.6000000000000003" width="1.6000000000000003" x="875.7735734094068" y="194.03870888242335" /><rect fill="#111" height="1.6000000000000003" width="1.6000000000000003" x="882.1735734094068" y="194.03870888242335" /><rect fill="#111" height="1.6000000000000003" width="1.6000000000000003" x="875.7735734094068" y="198.83870888242336" /><rect fill="#111" height="1.6000000000000003" width="1.6000000000000003" x="882.1735734094068" y="198.83870888242336" /><polygon fill="#66ccff" points="879.7735734094068,194.83870888242336 882.1735734094068,196.03870888242338 882.1735734094068,198.43870888242336 879.7735734094068,199.63870888242337" /></g><g transform="rotate(449.01098901098896,879.9433891355227,198.61914872756893)"><rect fill="#ff3300" height="16" rx="3" width="32" x="863.9433891355227" y="190.61914872756893" /><rect fill="#111" height="5.333333333333333" width="5.333333333333333" x="866.6100558021893" y="187.95248206090227" /><rect fill="#111" height="5.333333333333333" width="5.333333333333333" x="887.9433891355227" y="187.95248206090227" /><rect fill="#111" height="5.333333333333333" width="5.333333333333333" x="866.6100558021893" y="203.95248206090227" /><rect fill="#111" height="5.333333333333333" width="5.333333333333333" x="887.9433891355227" y="203.95248206090227" /><polygon fill="#66ccff" points="879.9433891355227,190.61914872756893 887.9433891355227,194.61914872756893 887.9433891355227,202.61914872756893 879.9433891355227,206.61914872756893" /></g><line stroke="#ffffff" stroke-width="3" x1="865.0" x2="895.0" y1="190.0" y2="210.0" /><line stroke="#ffffff" stroke-width="3" x1="895.0" x2="865.0" y1="190.0" y2="210.0" /><text fill="#ffffff" font-size="14px" text-anchor="middle" x="500.0" y="360">Total Contributions: 41</text><text fill="#ffffff" font-size="18px" font-weight="bold" text-anchor="middle" x="500.0" y="30">@K-B-R-S-W's Racing Contributions</text><text fill="#aaaaaa" font-size="10px" text-anchor="end" x="980" y="380">Generated: 2025-04-20</text></svg>